<mxfile host="Electron" agent="Mozilla/5.0 (Macintosh; Intel Mac OS X 10_15_7) AppleWebKit/537.36 (KHTML, like Gecko) draw.io/26.2.15 Chrome/134.0.6998.205 Electron/35.2.1 Safari/537.36" version="26.2.15">
  <diagram name="Page-1" id="o56g5Fyr8evUAqT_ZzkA">
    <mxGraphModel dx="1234" dy="898" grid="1" gridSize="10" guides="1" tooltips="1" connect="1" arrows="1" fold="1" page="1" pageScale="1" pageWidth="1169" pageHeight="827" math="0" shadow="0">
      <root>
        <mxCell id="0" />
        <mxCell id="1" parent="0" />
        <mxCell id="uC6fDOIxo9dxoR4hg8fe-265" value="" style="group;fontSize=13;" parent="1" vertex="1" connectable="0">
          <mxGeometry x="40" y="300" width="785" height="250" as="geometry" />
        </mxCell>
        <mxCell id="uC6fDOIxo9dxoR4hg8fe-239" value="libm" style="rounded=0;whiteSpace=wrap;html=1;fillColor=#f8cecc;strokeColor=#b85450;shadow=1;fontSize=13;" parent="uC6fDOIxo9dxoR4hg8fe-265" vertex="1">
          <mxGeometry x="140" y="120" width="40" height="80" as="geometry" />
        </mxCell>
        <mxCell id="uC6fDOIxo9dxoR4hg8fe-240" value="" style="rounded=0;whiteSpace=wrap;html=1;fillColor=#60a917;fontColor=#ffffff;strokeColor=#2D7600;fontSize=13;" parent="uC6fDOIxo9dxoR4hg8fe-265" vertex="1">
          <mxGeometry x="180" y="120" width="40" height="80" as="geometry" />
        </mxCell>
        <mxCell id="uC6fDOIxo9dxoR4hg8fe-241" value="" style="rounded=0;whiteSpace=wrap;html=1;fillColor=#60a917;fontColor=#ffffff;strokeColor=#2D7600;fontSize=13;" parent="uC6fDOIxo9dxoR4hg8fe-265" vertex="1">
          <mxGeometry x="220" y="120" width="40" height="80" as="geometry" />
        </mxCell>
        <mxCell id="uC6fDOIxo9dxoR4hg8fe-242" value="libpng" style="rounded=0;whiteSpace=wrap;html=1;fillColor=#ffe6cc;strokeColor=#d79b00;shadow=1;fontSize=13;" parent="uC6fDOIxo9dxoR4hg8fe-265" vertex="1">
          <mxGeometry x="260" y="120" width="40" height="80" as="geometry" />
        </mxCell>
        <mxCell id="uC6fDOIxo9dxoR4hg8fe-243" value="libpng" style="rounded=0;whiteSpace=wrap;html=1;fillColor=#ffe6cc;strokeColor=#d79b00;shadow=1;fontSize=13;" parent="uC6fDOIxo9dxoR4hg8fe-265" vertex="1">
          <mxGeometry x="300" y="120" width="40" height="80" as="geometry" />
        </mxCell>
        <mxCell id="uC6fDOIxo9dxoR4hg8fe-244" value="libpng" style="rounded=0;whiteSpace=wrap;html=1;fillColor=#ffe6cc;strokeColor=#d79b00;shadow=1;fontSize=13;" parent="uC6fDOIxo9dxoR4hg8fe-265" vertex="1">
          <mxGeometry x="340" y="120" width="40" height="80" as="geometry" />
        </mxCell>
        <mxCell id="uC6fDOIxo9dxoR4hg8fe-245" value="" style="rounded=0;whiteSpace=wrap;html=1;fillColor=#60a917;fontColor=#ffffff;strokeColor=#2D7600;fontSize=13;" parent="uC6fDOIxo9dxoR4hg8fe-265" vertex="1">
          <mxGeometry x="380" y="120" width="40" height="80" as="geometry" />
        </mxCell>
        <mxCell id="uC6fDOIxo9dxoR4hg8fe-246" value="libxz" style="rounded=0;whiteSpace=wrap;html=1;fillColor=#e1d5e7;strokeColor=#9673a6;shadow=1;fontSize=13;" parent="uC6fDOIxo9dxoR4hg8fe-265" vertex="1">
          <mxGeometry x="420" y="120" width="40" height="80" as="geometry" />
        </mxCell>
        <mxCell id="uC6fDOIxo9dxoR4hg8fe-247" value="libxz" style="rounded=0;whiteSpace=wrap;html=1;fillColor=#e1d5e7;strokeColor=#9673a6;shadow=1;fontSize=13;" parent="uC6fDOIxo9dxoR4hg8fe-265" vertex="1">
          <mxGeometry x="460" y="120" width="40" height="80" as="geometry" />
        </mxCell>
        <mxCell id="uC6fDOIxo9dxoR4hg8fe-248" value="" style="rounded=0;whiteSpace=wrap;html=1;fillColor=#60a917;fontColor=#ffffff;strokeColor=#2D7600;fontSize=13;" parent="uC6fDOIxo9dxoR4hg8fe-265" vertex="1">
          <mxGeometry x="500" y="120" width="40" height="80" as="geometry" />
        </mxCell>
        <mxCell id="uC6fDOIxo9dxoR4hg8fe-249" value="libomp" style="rounded=0;whiteSpace=wrap;html=1;fillColor=#dae8fc;strokeColor=#6c8ebf;shadow=1;fontSize=13;" parent="uC6fDOIxo9dxoR4hg8fe-265" vertex="1">
          <mxGeometry x="540" y="120" width="40" height="80" as="geometry" />
        </mxCell>
        <mxCell id="uC6fDOIxo9dxoR4hg8fe-250" value="" style="rounded=0;whiteSpace=wrap;html=1;fillColor=#60a917;fontColor=#ffffff;strokeColor=#2D7600;fontSize=13;" parent="uC6fDOIxo9dxoR4hg8fe-265" vertex="1">
          <mxGeometry x="580" y="120" width="40" height="80" as="geometry" />
        </mxCell>
        <mxCell id="uC6fDOIxo9dxoR4hg8fe-251" value="" style="rounded=0;whiteSpace=wrap;html=1;fillColor=#60a917;strokeColor=#2D7600;fontColor=#ffffff;fontSize=13;" parent="uC6fDOIxo9dxoR4hg8fe-265" vertex="1">
          <mxGeometry x="620" y="120" width="40" height="80" as="geometry" />
        </mxCell>
        <mxCell id="uC6fDOIxo9dxoR4hg8fe-252" style="edgeStyle=orthogonalEdgeStyle;rounded=0;orthogonalLoop=1;jettySize=auto;html=1;exitX=1;exitY=1;exitDx=0;exitDy=0;endArrow=none;startFill=0;fontSize=13;" parent="uC6fDOIxo9dxoR4hg8fe-265" source="uC6fDOIxo9dxoR4hg8fe-253" edge="1">
          <mxGeometry relative="1" as="geometry">
            <mxPoint x="700.1290322580644" y="220.0000000000001" as="targetPoint" />
          </mxGeometry>
        </mxCell>
        <mxCell id="uC6fDOIxo9dxoR4hg8fe-253" value="" style="rounded=0;whiteSpace=wrap;html=1;fillColor=#60a917;fontColor=#ffffff;strokeColor=#2D7600;fontSize=13;" parent="uC6fDOIxo9dxoR4hg8fe-265" vertex="1">
          <mxGeometry x="660" y="120" width="40" height="80" as="geometry" />
        </mxCell>
        <mxCell id="uC6fDOIxo9dxoR4hg8fe-254" value="" style="rounded=0;whiteSpace=wrap;html=1;fillColor=#60a917;strokeColor=#2D7600;fontColor=#ffffff;fontSize=13;" parent="uC6fDOIxo9dxoR4hg8fe-265" vertex="1">
          <mxGeometry x="60" y="120" width="40" height="80" as="geometry" />
        </mxCell>
        <mxCell id="uC6fDOIxo9dxoR4hg8fe-255" value="" style="rounded=0;whiteSpace=wrap;html=1;fillColor=#60a917;fontColor=#ffffff;strokeColor=#2D7600;fontSize=13;" parent="uC6fDOIxo9dxoR4hg8fe-265" vertex="1">
          <mxGeometry x="100" y="120" width="40" height="80" as="geometry" />
        </mxCell>
        <mxCell id="uC6fDOIxo9dxoR4hg8fe-256" value="" style="endArrow=none;html=1;rounded=0;fillColor=#e51400;strokeColor=#B20000;strokeWidth=2;fontSize=13;" parent="uC6fDOIxo9dxoR4hg8fe-265" edge="1">
          <mxGeometry width="50" height="50" relative="1" as="geometry">
            <mxPoint x="60" y="78.94999999999999" as="sourcePoint" />
            <mxPoint x="700" y="78.94999999999999" as="targetPoint" />
          </mxGeometry>
        </mxCell>
        <mxCell id="uC6fDOIxo9dxoR4hg8fe-257" value="" style="whiteSpace=wrap;html=1;fillColor=#f8cecc;strokeColor=#b85450;shadow=1;fontSize=13;" parent="uC6fDOIxo9dxoR4hg8fe-265" vertex="1">
          <mxGeometry x="140" y="60" width="40" height="20" as="geometry" />
        </mxCell>
        <mxCell id="uC6fDOIxo9dxoR4hg8fe-258" value=".so specific filter" style="whiteSpace=wrap;html=1;fillColor=#ffe6cc;strokeColor=#d79b00;shadow=1;fontSize=13;" parent="uC6fDOIxo9dxoR4hg8fe-265" vertex="1">
          <mxGeometry x="260" y="60" width="120" height="20" as="geometry" />
        </mxCell>
        <mxCell id="uC6fDOIxo9dxoR4hg8fe-259" value="" style="whiteSpace=wrap;html=1;fillColor=#e1d5e7;strokeColor=#9673a6;shadow=1;fontSize=13;" parent="uC6fDOIxo9dxoR4hg8fe-265" vertex="1">
          <mxGeometry x="420" y="60" width="80" height="20" as="geometry" />
        </mxCell>
        <mxCell id="uC6fDOIxo9dxoR4hg8fe-260" value="" style="whiteSpace=wrap;html=1;fillColor=#dae8fc;strokeColor=#6c8ebf;shadow=1;fontSize=13;" parent="uC6fDOIxo9dxoR4hg8fe-265" vertex="1">
          <mxGeometry x="540" y="60" width="40" height="20" as="geometry" />
        </mxCell>
        <mxCell id="uC6fDOIxo9dxoR4hg8fe-261" value="&lt;h1 style=&quot;margin-top: 0px;&quot;&gt;&lt;font face=&quot;Courier New&quot;&gt;addrfilter&lt;/font&gt; Fine-Grained Filters&lt;/h1&gt;" style="text;html=1;whiteSpace=wrap;overflow=hidden;rounded=0;fontSize=13;" parent="uC6fDOIxo9dxoR4hg8fe-265" vertex="1">
          <mxGeometry x="60" width="630" height="40" as="geometry" />
        </mxCell>
        <mxCell id="uC6fDOIxo9dxoR4hg8fe-262" value="0x000000000000" style="text;html=1;align=center;verticalAlign=middle;resizable=0;points=[];autosize=1;strokeColor=none;fillColor=none;fontSize=13;" parent="uC6fDOIxo9dxoR4hg8fe-265" vertex="1">
          <mxGeometry y="220" width="120" height="30" as="geometry" />
        </mxCell>
        <mxCell id="uC6fDOIxo9dxoR4hg8fe-263" style="edgeStyle=orthogonalEdgeStyle;rounded=0;orthogonalLoop=1;jettySize=auto;html=1;exitX=0;exitY=1;exitDx=0;exitDy=0;entryX=0.496;entryY=-0.056;entryDx=0;entryDy=0;entryPerimeter=0;endArrow=none;startFill=0;fontSize=13;" parent="uC6fDOIxo9dxoR4hg8fe-265" source="uC6fDOIxo9dxoR4hg8fe-254" target="uC6fDOIxo9dxoR4hg8fe-262" edge="1">
          <mxGeometry relative="1" as="geometry" />
        </mxCell>
        <mxCell id="uC6fDOIxo9dxoR4hg8fe-264" value="0xFFFFFFFFFFFF" style="text;html=1;align=center;verticalAlign=middle;resizable=0;points=[];autosize=1;strokeColor=none;fillColor=none;fontSize=13;" parent="uC6fDOIxo9dxoR4hg8fe-265" vertex="1">
          <mxGeometry x="635" y="220" width="130" height="30" as="geometry" />
        </mxCell>
        <mxCell id="uC6fDOIxo9dxoR4hg8fe-266" value="" style="group" parent="1" vertex="1" connectable="0">
          <mxGeometry x="40" y="40" width="785" height="240" as="geometry" />
        </mxCell>
        <mxCell id="uC6fDOIxo9dxoR4hg8fe-201" value="libm" style="rounded=0;whiteSpace=wrap;html=1;fillColor=#f8cecc;strokeColor=#b85450;shadow=1;fontSize=13;" parent="uC6fDOIxo9dxoR4hg8fe-266" vertex="1">
          <mxGeometry x="140" y="100" width="40" height="80" as="geometry" />
        </mxCell>
        <mxCell id="uC6fDOIxo9dxoR4hg8fe-202" value="" style="rounded=0;whiteSpace=wrap;html=1;fillColor=#60a917;fontColor=#ffffff;strokeColor=#2D7600;fontSize=13;" parent="uC6fDOIxo9dxoR4hg8fe-266" vertex="1">
          <mxGeometry x="180" y="100" width="40" height="80" as="geometry" />
        </mxCell>
        <mxCell id="uC6fDOIxo9dxoR4hg8fe-203" value="" style="rounded=0;whiteSpace=wrap;html=1;fillColor=#60a917;fontColor=#ffffff;strokeColor=#2D7600;fontSize=13;" parent="uC6fDOIxo9dxoR4hg8fe-266" vertex="1">
          <mxGeometry x="220" y="100" width="40" height="80" as="geometry" />
        </mxCell>
        <mxCell id="uC6fDOIxo9dxoR4hg8fe-204" value="libpng" style="rounded=0;whiteSpace=wrap;html=1;fillColor=#ffe6cc;strokeColor=#d79b00;shadow=1;fontSize=13;" parent="uC6fDOIxo9dxoR4hg8fe-266" vertex="1">
          <mxGeometry x="260" y="100" width="40" height="80" as="geometry" />
        </mxCell>
        <mxCell id="uC6fDOIxo9dxoR4hg8fe-205" value="libpng" style="rounded=0;whiteSpace=wrap;html=1;fillColor=#ffe6cc;strokeColor=#d79b00;shadow=1;fontSize=13;" parent="uC6fDOIxo9dxoR4hg8fe-266" vertex="1">
          <mxGeometry x="300" y="100" width="40" height="80" as="geometry" />
        </mxCell>
        <mxCell id="uC6fDOIxo9dxoR4hg8fe-206" value="libpng" style="rounded=0;whiteSpace=wrap;html=1;fillColor=#ffe6cc;strokeColor=#d79b00;shadow=1;fontSize=13;" parent="uC6fDOIxo9dxoR4hg8fe-266" vertex="1">
          <mxGeometry x="340" y="100" width="40" height="80" as="geometry" />
        </mxCell>
        <mxCell id="uC6fDOIxo9dxoR4hg8fe-207" value="" style="rounded=0;whiteSpace=wrap;html=1;fillColor=#60a917;fontColor=#ffffff;strokeColor=#2D7600;fontSize=13;" parent="uC6fDOIxo9dxoR4hg8fe-266" vertex="1">
          <mxGeometry x="380" y="100" width="40" height="80" as="geometry" />
        </mxCell>
        <mxCell id="uC6fDOIxo9dxoR4hg8fe-208" value="libxz" style="rounded=0;whiteSpace=wrap;html=1;fillColor=#e1d5e7;strokeColor=#9673a6;shadow=1;fontSize=13;" parent="uC6fDOIxo9dxoR4hg8fe-266" vertex="1">
          <mxGeometry x="420" y="100" width="40" height="80" as="geometry" />
        </mxCell>
        <mxCell id="uC6fDOIxo9dxoR4hg8fe-209" value="libxz" style="rounded=0;whiteSpace=wrap;html=1;fillColor=#e1d5e7;strokeColor=#9673a6;shadow=1;fontSize=13;" parent="uC6fDOIxo9dxoR4hg8fe-266" vertex="1">
          <mxGeometry x="460" y="100" width="40" height="80" as="geometry" />
        </mxCell>
        <mxCell id="uC6fDOIxo9dxoR4hg8fe-210" value="" style="rounded=0;whiteSpace=wrap;html=1;fillColor=#60a917;fontColor=#ffffff;strokeColor=#2D7600;fontSize=13;" parent="uC6fDOIxo9dxoR4hg8fe-266" vertex="1">
          <mxGeometry x="500" y="100" width="40" height="80" as="geometry" />
        </mxCell>
        <mxCell id="uC6fDOIxo9dxoR4hg8fe-211" value="libomp" style="rounded=0;whiteSpace=wrap;html=1;fillColor=#dae8fc;strokeColor=#6c8ebf;shadow=1;fontSize=13;" parent="uC6fDOIxo9dxoR4hg8fe-266" vertex="1">
          <mxGeometry x="540" y="100" width="40" height="80" as="geometry" />
        </mxCell>
        <mxCell id="uC6fDOIxo9dxoR4hg8fe-212" value="" style="rounded=0;whiteSpace=wrap;html=1;fillColor=#60a917;fontColor=#ffffff;strokeColor=#2D7600;fontSize=13;" parent="uC6fDOIxo9dxoR4hg8fe-266" vertex="1">
          <mxGeometry x="580" y="100" width="40" height="80" as="geometry" />
        </mxCell>
        <mxCell id="uC6fDOIxo9dxoR4hg8fe-213" value="" style="rounded=0;whiteSpace=wrap;html=1;fillColor=#60a917;strokeColor=#2D7600;fontColor=#ffffff;fontSize=13;" parent="uC6fDOIxo9dxoR4hg8fe-266" vertex="1">
          <mxGeometry x="620" y="100" width="40" height="80" as="geometry" />
        </mxCell>
        <mxCell id="uC6fDOIxo9dxoR4hg8fe-231" style="edgeStyle=orthogonalEdgeStyle;rounded=0;orthogonalLoop=1;jettySize=auto;html=1;exitX=1;exitY=1;exitDx=0;exitDy=0;endArrow=none;startFill=0;fontSize=13;" parent="uC6fDOIxo9dxoR4hg8fe-266" source="uC6fDOIxo9dxoR4hg8fe-214" edge="1">
          <mxGeometry relative="1" as="geometry">
            <mxPoint x="700.1290322580644" y="210" as="targetPoint" />
          </mxGeometry>
        </mxCell>
        <mxCell id="uC6fDOIxo9dxoR4hg8fe-214" value="" style="rounded=0;whiteSpace=wrap;html=1;fillColor=#60a917;fontColor=#ffffff;strokeColor=#2D7600;fontSize=13;" parent="uC6fDOIxo9dxoR4hg8fe-266" vertex="1">
          <mxGeometry x="660" y="100" width="40" height="80" as="geometry" />
        </mxCell>
        <mxCell id="uC6fDOIxo9dxoR4hg8fe-232" style="edgeStyle=orthogonalEdgeStyle;rounded=0;orthogonalLoop=1;jettySize=auto;html=1;exitX=0;exitY=1;exitDx=0;exitDy=0;endArrow=none;startFill=0;entryX=0.501;entryY=-0.013;entryDx=0;entryDy=0;entryPerimeter=0;fontSize=13;" parent="uC6fDOIxo9dxoR4hg8fe-266" source="uC6fDOIxo9dxoR4hg8fe-215" target="uC6fDOIxo9dxoR4hg8fe-235" edge="1">
          <mxGeometry relative="1" as="geometry">
            <mxPoint x="60.1290322580644" y="210" as="targetPoint" />
          </mxGeometry>
        </mxCell>
        <mxCell id="uC6fDOIxo9dxoR4hg8fe-215" value="" style="rounded=0;whiteSpace=wrap;html=1;fillColor=#60a917;strokeColor=#2D7600;fontColor=#ffffff;fontSize=13;" parent="uC6fDOIxo9dxoR4hg8fe-266" vertex="1">
          <mxGeometry x="60" y="100" width="40" height="80" as="geometry" />
        </mxCell>
        <mxCell id="uC6fDOIxo9dxoR4hg8fe-216" value="" style="rounded=0;whiteSpace=wrap;html=1;fillColor=#60a917;fontColor=#ffffff;strokeColor=#2D7600;fontSize=13;" parent="uC6fDOIxo9dxoR4hg8fe-266" vertex="1">
          <mxGeometry x="100" y="100" width="40" height="80" as="geometry" />
        </mxCell>
        <mxCell id="uC6fDOIxo9dxoR4hg8fe-225" value="Single filter, accounts for entire application" style="whiteSpace=wrap;html=1;fillColor=#f5f5f5;strokeColor=#666666;shadow=1;fontColor=#333333;fontSize=13;" parent="uC6fDOIxo9dxoR4hg8fe-266" vertex="1">
          <mxGeometry x="60" y="50" width="640" height="20" as="geometry" />
        </mxCell>
        <mxCell id="uC6fDOIxo9dxoR4hg8fe-226" value="&lt;h1 style=&quot;margin-top: 0px;&quot;&gt;A Single Seccomp Filter&lt;/h1&gt;" style="text;html=1;whiteSpace=wrap;overflow=hidden;rounded=0;" parent="uC6fDOIxo9dxoR4hg8fe-266" vertex="1">
          <mxGeometry x="60" width="350" height="40" as="geometry" />
        </mxCell>
        <mxCell id="uC6fDOIxo9dxoR4hg8fe-235" value="0x000000000000" style="text;html=1;align=center;verticalAlign=middle;resizable=0;points=[];autosize=1;strokeColor=none;fillColor=none;fontSize=13;" parent="uC6fDOIxo9dxoR4hg8fe-266" vertex="1">
          <mxGeometry y="210" width="120" height="30" as="geometry" />
        </mxCell>
        <mxCell id="uC6fDOIxo9dxoR4hg8fe-238" value="0xFFFFFFFFFFFF" style="text;html=1;align=center;verticalAlign=middle;resizable=0;points=[];autosize=1;strokeColor=none;fillColor=none;fontSize=13;" parent="uC6fDOIxo9dxoR4hg8fe-266" vertex="1">
          <mxGeometry x="635" y="210" width="130" height="30" as="geometry" />
        </mxCell>
      </root>
    </mxGraphModel>
  </diagram>
</mxfile>
